Coordinates
version=1
nRows=19
nColumns=24
inDegrees=yes

Units are S.I. units (second, meters, Newtons, ...)
Angles are in degrees.

endheader
time	pelvis_tilt	pelvis_list	pelvis_rotation	pelvis_tx	pelvis_ty	pelvis_tz	hip_flexion_r	hip_adduction_r	hip_rotation_r	knee_angle_r	ankle_angle_r	subtalar_angle_r	mtp_angle_r	hip_flexion_l	hip_adduction_l	hip_rotation_l	knee_angle_l	ankle_angle_l	subtalar_angle_l	mtp_angle_l	lumbar_extension	lumbar_bending	lumbar_rotation
      0.72383333	      2.18649751	     -5.76923764	      2.54918485	     -0.45249709	      0.99843065	      0.30192672	      9.98249595	     11.78289708	      2.18163127	    -17.84665715	      3.79264010	    -17.65693742	     -4.26400265	     16.59013436	     -6.24288392	      0.30946771	    -70.15348661	     -7.77146256	     -5.13516357	      3.55137565	     -3.19989278	      9.25762982	      1.30808148
      0.72800000	      2.19751885	     -5.72705493	      2.59865122	     -0.44736806	      0.99931836	      0.30184513	      9.42617801	     11.73897700	      2.20498702	    -17.44631495	      3.89950550	    -17.61253564	     -4.28063010	     17.25988655	     -6.13210665	      0.45990521	    -70.09334734	     -7.14348362	     -5.72144434	      3.50137966	     -3.22020514	      9.22594965	      1.35105015
      0.73216667	      2.26128867	     -5.62833261	      2.62921331	     -0.44223920	      1.00031951	      0.30175526	      8.79880542	     11.63688675	      2.26595813	    -17.03061102	      3.97706363	    -17.54428656	     -4.31588689	     17.82184689	     -5.95108025	      0.58110682	    -69.91103191	     -6.58393321	     -6.36169347	      3.39440829	     -3.32681924	      9.13667365	      1.40337381
      0.73633333	      2.33696503	     -5.51384751	      2.64131333	     -0.43708041	      1.00133613	      0.30169349	      8.15648320	     11.51647776	      2.30738864	    -16.61797125	      4.07258720	    -17.42950184	     -4.38685805	     18.33518297	     -5.76844968	      0.65843844	    -69.64288720	     -5.99541655	     -6.93798352	      3.17818666	     -3.41918526	      9.00606552	      1.48363042
      0.74050000	      2.37503390	     -5.40001475	      2.64371901	     -0.43197413	      1.00225547	      0.30161583	      7.56933249	     11.39372190	      2.36666710	    -16.23025720	      4.16538185	    -17.32215799	     -4.43167102	     18.87605658	     -5.57422321	      0.74391844	    -69.31844854	     -5.39677740	     -7.47491537	      3.03942927	     -3.51003312	      8.89916478	      1.55008008
      0.74466667	      2.42557244	     -5.29438544	      2.63754025	     -0.42684234	      1.00317567	      0.30155923	      6.95939789	     11.28119751	      2.42635686	    -15.82395225	      4.25244484	    -17.21242891	     -4.47854903	     19.37613035	     -5.40184354	      0.80432675	    -68.92031288	     -4.80316137	     -7.96835604	      2.89542750	     -3.59388145	      8.78810757	      1.62993678
      0.74883333	      2.47138074	     -5.15780921	      2.61276313	     -0.42171252	      1.00409052	      0.30150985	      6.35806394	     11.13297945	      2.49131081	    -15.43177933	      4.34563530	    -17.08764641	     -4.53076965	     19.84356496	     -5.19615163	      0.84089760	    -68.43311885	     -4.22509812	     -8.43083754	      2.73330205	     -3.67889863	      8.64549662	      1.72479031
      0.75300000	      2.49015380	     -5.02457019	      2.57693798	     -0.41659476	      1.00492229	      0.30147005	      5.79175951	     10.98608663	      2.55739150	    -15.04861967	      4.43686402	    -16.94889962	     -4.58920945	     20.32032633	     -4.99712752	      0.86435608	    -67.88582499	     -3.65793781	     -8.86002620	      2.54999406	     -3.73489329	      8.50290214	      1.83205378
      0.75716667	      2.48824572	     -4.91779275	      2.52286805	     -0.41148734	      1.00566560	      0.30145805	      5.25846480	     10.86832911	      2.63002100	    -14.68207041	      4.52621551	    -16.85540057	     -4.61745821	     20.80324581	     -4.84061101	      0.86775486	    -67.29131878	     -3.04733195	     -9.20440257	      2.46243848	     -3.75553432	      8.39377444	      1.89851984
      0.76133333	      2.52295252	     -4.78605972	      2.46760110	     -0.40637682	      1.00644929	      0.30143615	      4.67281235	     10.72351244	      2.71786178	    -14.29291144	      4.60783006	    -16.73379140	     -4.65359384	     21.21064758	     -4.65598078	      0.86319635	    -66.60883239	     -2.50558081	     -9.54002099	      2.34779212	     -3.83216564	      8.25994317	      2.00803732
      0.76550000	      2.56077863	     -4.64680097	      2.41324038	     -0.40127997	      1.00720858	      0.30140389	      4.07970192	     10.56875635	      2.81077896	    -13.89085672	      4.69806220	    -16.57484474	     -4.71705116	     21.58993298	     -4.46006728	      0.86111332	    -65.85694667	     -2.00853145	     -9.83418928	      2.14513035	     -3.93246466	      8.10814237	      2.17804343
      0.76966667	      2.55445388	     -4.52713484	      2.32715630	     -0.39619131	      1.00782795	      0.30140880	      3.55988927	     10.43285038	      2.89903735	    -13.54137085	      4.78022586	    -16.46951813	     -4.74998562	     21.99827484	     -4.30452415	      0.81687018	    -65.06378738	     -1.44978634	    -10.07486168	      2.03978058	     -3.95420523	      7.98381965	      2.25955893
      0.77383333	      2.56760882	     -4.40225181	      2.25674948	     -0.39108126	      1.00845352	      0.30140809	      2.99543442	     10.29073815	      2.99036493	    -13.13933195	      4.86853400	    -16.32598838	     -4.80870931	     22.35985845	     -4.14229838	      0.78464382	    -64.19775302	     -0.98854109	    -10.27775913	      1.84586047	     -4.01346141	      7.83358259	      2.43365157
      0.77800000	      2.56172191	     -4.27923112	      2.15353343	     -0.38602048	      1.00898989	      0.30141919	      2.47938861	     10.14863615	      3.10061360	    -12.79182780	      4.94320818	    -16.21415042	     -4.84581077	     22.71764634	     -3.98799471	      0.72466627	    -63.27924366	     -0.47879220	    -10.44568361	      1.72222469	     -4.05485120	      7.71610769	      2.53178134
      0.78216667	      2.54804745	     -4.16391170	      2.06147056	     -0.38094145	      1.00946845	      0.30142014	      1.96183216	     10.01309439	      3.20819409	    -12.42163474	      5.02321561	    -16.10020271	     -4.87995588	     23.06384177	     -3.84138475	      0.67348334	    -62.30347757	     -0.03034075	    -10.57672822	      1.60370505	     -4.08146466	      7.59683543	      2.65701373
      0.78633333	      2.55506580	     -4.06013832	      1.98594369	     -0.37584359	      1.00992196	      0.30141235	      1.40892598	      9.88849894	      3.29485519	    -12.01923837	      5.11611682	    -15.95828586	     -4.95282011	     23.36971828	     -3.70971015	      0.63035711	    -61.27511529	      0.35502477	    -10.66829893	      1.34514420	     -4.13336098	      7.48307775	      2.88261815
      0.79050000	      2.53526444	     -3.96365487	      1.88439448	     -0.37076389	      1.01028174	      0.30142165	      0.90121436	      9.77002180	      3.40084839	    -11.64863312	      5.18945551	    -15.84903047	     -5.02722545	     23.68042482	     -3.59581605	      0.55833484	    -60.19679557	      0.75562999	    -10.72650786	      1.08033877	     -4.14934018	      7.37743773	      3.02758608
      0.79466667	      2.52990377	     -3.87172104	      1.79328608	     -0.36568769	      1.01061869	      0.30140772	      0.37388390	      9.65518925	      3.51132675	    -11.26727980	      5.26457224	    -15.74872004	     -5.10629265	     23.95264683	     -3.47869034	      0.50674937	    -59.06121236	      1.12553637	    -10.77030842	      0.79291801	     -4.18890589	      7.29037160	      3.18176223
      0.79883333	      2.48925320	     -3.76482911	      1.68047012	     -0.36059602	      1.01086321	      0.30142631	     -0.10458903	      9.51967238	      3.60387740	    -10.90866995	      5.33836521	    -15.63877601	     -5.16047618	     24.23408129	     -3.36267005	      0.40701651	    -57.86759802	      1.45238646	    -10.79645041	      0.58822554	     -4.17352052	      7.17056636	      3.30225369
